@startuml
skinparam monochrome true
skinparam packageStyle rectangle
skinparam shadowing false

'left to right direction

skinparam classAttributeIconSize 0

hide circle
hide methods

class Collaborator {
   name
   birthdate
   admissionDate
   address
   contactInfo
   idDocumentType
   idDocumentNumber
}

class Skill {
    name
}

class HRM {

}

class GreenSpace {
    name
    address
    dimension
}

class Garden {

}

class MediumSizedPark {

}

class LargeSizedPark {

}

class Organization{
    name
    address
}

GreenSpace <|-- Garden
GreenSpace <|-- MediumSizedPark
GreenSpace <|-- LargeSizedPark
Collaborator <|-- HRM
HRM "1" - "1..*" Skill : assigns >
Collaborator "1" -- "1..*" Skill : has >
Organization "1" -- "1..*" Collaborator: manages >
GreenSpace "1" -- "1..*" Collaborator: responsible for >
@enduml
