@startuml
skinparam monochrome true
skinparam packageStyle rectangle
skinparam shadowing false

'left to right direction

skinparam classAttributeIconSize 0

hide circle
hide methods


class Job {
    name
}

class Collaborator {
   name
   birthdate
   admissionDate
   address
   contactInfo
   idDocumentType
   idDocumentNumber
}

class HRM {

}

class GreenSpace {
    name
    address
    dimension
}

class Garden {

}

class MediumSizedPark {

}

class LargeSizedPark {

}

class Organization{
    name
    address
}

HRM "1" -- "1..*" Job : creates >
Collaborator "1" - "1..*" Job : has >
Collaborator <|-- HRM
GreenSpace "1" -- "1..*" Collaborator: has >
GreenSpace <|-- Garden
GreenSpace <|-- MediumSizedPark
GreenSpace <|-- LargeSizedPark
Organization "1" -- "1..*" GreenSpace: owns >
Organization "1   " -- "1..*" Collaborator: works for <
@enduml